<?xml version="1.0" encoding="iso-8859-1"?>
<!-- Generator: Adobe Illustrator 16.0.0, SVG Export Plug-In . SVG Version: 6.00 Build 0)  -->
<!DOCTYPE svg PUBLIC "-//W3C//DTD SVG 1.1//EN" "http://www.w3.org/Graphics/SVG/1.1/DTD/svg11.dtd">
<svg version="1.1" id="Capa_1" xmlns="http://www.w3.org/2000/svg" xmlns:xlink="http://www.w3.org/1999/xlink" x="0px" y="0px"
	 width="459.57px" height="459.569px" viewBox="0 0 459.57 459.569" style="enable-background:new 0 0 459.57 459.569;"
	 xml:space="preserve">
<g>
	<path d="M444.351,343.9c0-0.087,0.002-0.173,0.002-0.259L444.343,12.5c0-3.562-1.52-6.953-4.176-9.324
		c-2.656-2.372-6.209-3.501-9.734-3.096L115.061,35.919c-6.317,0.718-11.089,6.063-11.089,12.42v231.371
		c-49.049,0.633-88.756,40.729-88.756,89.924c0,49.591,40.344,89.935,89.934,89.935c23.515,0,45.766-9.05,62.654-25.483
		c16.57-16.122,26.19-37.596,27.17-60.578c0.063-0.504,0.094-1.017,0.094-1.537V152.072l158.179-17.977v117.11
		c-49.062,0.614-88.789,40.718-88.789,89.925c0,49.59,40.344,89.935,89.932,89.935C403.001,431.064,443.357,391.963,444.351,343.9z
		 M289.458,341.131c0-35.804,29.127-64.932,64.934-64.932c3.15,0,6.355,0.237,9.525,0.707c3.6,0.533,7.246-0.526,9.996-2.901
		c2.752-2.375,4.334-5.829,4.334-9.464V120.095c0-3.561-1.518-6.953-4.174-9.324c-2.656-2.371-6.201-3.5-9.736-3.096l-183.18,20.817
		c-6.317,0.718-11.089,6.063-11.089,12.42v229.985c-0.02,0.23-0.033,0.466-0.04,0.699c-1.036,34.724-30.14,62.973-64.878,62.973
		c-35.805,0-64.934-29.129-64.934-64.935c0-35.804,29.129-64.932,64.934-64.932c3.142,0,6.338,0.235,9.5,0.702
		c3.595,0.529,7.242-0.531,9.991-2.905c2.75-2.374,4.331-5.827,4.331-9.461V59.5l290.371-32.997l0.01,317.005
		c-0.779,34.508-29.896,62.558-64.963,62.558C318.585,406.064,289.458,376.936,289.458,341.131z"/>
</g>
<g>
</g>
<g>
</g>
<g>
</g>
<g>
</g>
<g>
</g>
<g>
</g>
<g>
</g>
<g>
</g>
<g>
</g>
<g>
</g>
<g>
</g>
<g>
</g>
<g>
</g>
<g>
</g>
<g>
</g>
</svg>
